<svg version="1" xmlns="http://www.w3.org/2000/svg" width="470.667" height="470.667" viewBox="0 0 353.000000 353.000000"><path d="M155.9 14.6c-11.6 7.9-21.5 14.2-21.8 14-.4-.3-2.4-.7-4.6-1-4.8-.6-23.4-3-32.4-4.2-2.5-.3-4.9-.6-5.5-.7-1.1-.2-4 5-8.1 14.8-2.9 7-5.2 12.4-11.7 26.6l-3.5 7.5-8.9 3.3c-7.7 2.9-16.6 6.2-31.4 11.5-3.2 1.2-3.5 1.6-3.4 5.2.1 5.7 2.1 34.7 2.9 41.5.4 3.3-.8 5.3-12 21.5-6.8 9.9-12.9 18.5-13.5 19.2-1.2 1.4.4 4.2 18.1 31.5 6.5 10.1 7.6 12.4 7.4 15.5-.2 2.1-.6 7.5-1 12.2-.3 4.7-.8 10.5-1 13-.3 2.5-.7 7.7-1 11.6l-.5 7.1 6.5 3.2c3.6 1.7 6.8 3.1 6.9 3.1.2 0 7 3.2 15.1 7 8.1 3.9 15 7 15.3 7 .4 0 5.5 9.6 11.4 21.3L90 327.7h22.7c21.4 0 23 .2 26.3 2.1 1.9 1.2 6.7 4 10.5 6.2 3.9 2.3 11.4 6.8 16.8 10.1 5.5 3.2 10.3 5.9 10.7 5.9.7 0 22.2-12.3 38.3-22 3.7-2.2 4.6-2.3 29.1-2.3 17.5 0 25.3-.4 25.3-1.1.1-.6 3.7-10.1 8-21.1l7.9-20 9.9-4.8c5.5-2.7 15.2-7.4 21.5-10.5l11.5-5.7.1-24.2c0-17.2.4-24.6 1.3-25.6.6-.8 2.9-4.8 5-8.8 2.2-4.1 6.8-12.5 10.3-18.8l6.5-11.5-7.5-12.5c-4.2-6.9-9.3-15.7-11.5-19.5l-4.1-6.9V88.1L307 77.5l-21.5-10.7-5.4-14.6c-2.9-8.1-6.6-18.1-8.2-22.2l-2.9-7.6-9.2 1.2c-17.6 2.2-19.3 2.5-23.8 2.9-8.2.8-14.5 1.7-15.1 2.1-.4.2-10.4-6.1-22.3-14L177.1.3l-21.2 14.3z"/></svg>