<svg id="instagram" xmlns="http://www.w3.org/2000/svg" width="39.984" height="40" viewBox="0 0 39.984 40">
  <path id="Path_9" data-name="Path 9" d="M20,3.6c5.345,0,5.978.023,8.08.117a10.961,10.961,0,0,1,3.712.688,6.186,6.186,0,0,1,2.3,1.492,6.269,6.269,0,0,1,1.5,2.3,11.007,11.007,0,0,1,.688,3.712c.094,2.11.117,2.743.117,8.08s-.023,5.978-.117,8.08a10.961,10.961,0,0,1-.688,3.712,6.186,6.186,0,0,1-1.492,2.3,6.269,6.269,0,0,1-2.3,1.5,11.007,11.007,0,0,1-3.712.688c-2.11.094-2.743.117-8.08.117s-5.978-.023-8.08-.117a10.961,10.961,0,0,1-3.712-.688,6.186,6.186,0,0,1-2.3-1.492,6.269,6.269,0,0,1-1.5-2.3,11.007,11.007,0,0,1-.688-3.712c-.094-2.11-.117-2.743-.117-8.08s.023-5.978.117-8.08A10.961,10.961,0,0,1,4.423,8.2a6.186,6.186,0,0,1,1.492-2.3,6.269,6.269,0,0,1,2.3-1.5,11.007,11.007,0,0,1,3.712-.688C14.026,3.626,14.659,3.6,20,3.6ZM20,0c-5.431,0-6.111.023-8.244.117a14.616,14.616,0,0,0-4.853.93A9.764,9.764,0,0,0,3.36,3.36,9.8,9.8,0,0,0,1.047,6.9a14.659,14.659,0,0,0-.93,4.853C.023,13.893,0,14.573,0,20s.023,6.111.117,8.244a14.616,14.616,0,0,0,.93,4.853A9.764,9.764,0,0,0,3.36,36.648,9.778,9.778,0,0,0,6.9,38.953a14.659,14.659,0,0,0,4.853.93C13.886,39.977,14.565,40,20,40s6.111-.023,8.244-.117a14.616,14.616,0,0,0,4.853-.93,10.22,10.22,0,0,0,5.845-5.845,14.659,14.659,0,0,0,.93-4.853c.094-2.133.117-2.813.117-8.244s-.023-6.111-.117-8.244a14.616,14.616,0,0,0-.93-4.853,9.37,9.37,0,0,0-2.29-3.555,9.778,9.778,0,0,0-3.54-2.305,14.659,14.659,0,0,0-4.853-.93C26.114.023,25.435,0,20,0h0Z" transform="translate(0)" fill="#f7f8f9"/>
  <path id="Path_10" data-name="Path 10" d="M134.775,124.5a10.275,10.275,0,1,0,10.275,10.275A10.278,10.278,0,0,0,134.775,124.5Zm0,16.941a6.665,6.665,0,1,1,6.665-6.665A6.666,6.666,0,0,1,134.775,141.441Z" transform="translate(-114.772 -114.772)" fill="#f7f8f9"/>
  <path id="Path_11" data-name="Path 11" d="M366.8,91a2.4,2.4,0,1,1-2.4-2.4A2.4,2.4,0,0,1,366.8,91Z" transform="translate(-333.713 -81.677)" fill="#f7f8f9"/>
</svg>
