<svg xmlns="http://www.w3.org/2000/svg" width="38.989" height="38.989" viewBox="0 0 38.989 38.989">
  <defs>
    <style>
      .cls-1 {
        fill: #111224;
      }
    </style>
  </defs>
  <g id="search" transform="translate(-314.807 -3.481)">
    <path id="search-2" data-name="search" class="cls-1" d="M.935,25.681,8.084,19.6a3.19,3.19,0,0,1,2.168-.941,11.319,11.319,0,1,1,1.267,1.267,3.19,3.19,0,0,1-.941,2.168L4.5,29.243a2.59,2.59,0,0,1-3.779.217,2.59,2.59,0,0,1,.217-3.779Zm17.926-6.819a7.545,7.545,0,1,0-7.545-7.545A7.545,7.545,0,0,0,18.861,18.861Z" transform="matrix(0.934, 0.358, -0.358, 0.934, 325.622, 3.481)"/>
  </g>
</svg>
